<svg xmlns="http://www.w3.org/2000/svg" version="1.1" xmlns:xlink="http://www.w3.org/1999/xlink" xmlns:svgjs="http://svgjs.dev/svgjs" width="1500" height="363" viewBox="0 0 1500 363"><g transform="matrix(1,0,0,1,-0.9090909090909918,-0.8207903951975766)"><svg viewBox="0 0 396 96" data-background-color="#ffffff" preserveAspectRatio="xMidYMid meet" height="363" width="1500" xmlns="http://www.w3.org/2000/svg" xmlns:xlink="http://www.w3.org/1999/xlink"><g id="tight-bounds" transform="matrix(1,0,0,1,0.2400000000000091,0.2170685342671277)"><svg viewBox="0 0 395.52 95.56586293146573" height="95.56586293146573" width="395.52"><g><svg viewBox="0 0 395.52 95.56586293146573" height="95.56586293146573" width="395.52"><g><svg viewBox="0 0 395.52 95.56586293146573" height="95.56586293146573" width="395.52"><g id="textblocktransform"><svg viewBox="0 0 395.52 95.56586293146573" height="95.56586293146573" width="395.52" id="textblock"><g><svg viewBox="0 0 395.52 95.56586293146573" height="95.56586293146573" width="395.52"><g transform="matrix(1,0,0,1,0,0)"><svg width="395.52" viewBox="-1 -36.75 199.88 48.3" height="95.56586293146573" data-palette-color="#0080ff"><path d="M31.15-2.75L34.8-2.35 34.75 0 21.35 0 21.05-1.6Q22.65-2.35 25.95-3.35L25.95-3.35 23.3-10.05 9.8-10.05 7-2.95 12.25-2.35 12.2 0-0.7 0-1-1.6Q0.25-2.2 3.15-3.1L3.15-3.1 14.85-31.45 14.5-32.35 18.45-33.7 31.15-2.75ZM11-13.1L22.1-13.1 16.5-27.2 11-13.1ZM41.3-4.8L41.3-4.8Q44.95-4.75 50.17-3.73 55.4-2.7 58.7-1.4L58.7-1.4 58.95 0.75Q58.95 5.3 54.75 8.43 50.55 11.55 44.8 11.55L44.8 11.55Q40.9 11.55 38.17 9.85 35.45 8.15 35.45 5.2L35.45 5.2 35.5 4.45 41.45-1.05 37.5-1.25 36.6-3.6Q39.05-6.5 41.9-8.55L41.9-8.55Q36.15-10.75 36.15-16.25L36.15-16.25Q36.15-19.95 39.15-22.38 42.15-24.8 46.55-24.8L46.55-24.8Q50.45-24.8 53.2-22.85L53.2-22.85Q55-26.25 59.15-27.1L59.15-27.1 60.1-21.9Q57.5-21.9 55.35-20.9L55.35-20.9Q56.9-18.8 56.9-16.15L56.9-16.15Q56.9-12.4 53.87-10.05 50.85-7.7 46.55-7.7L46.55-7.7 44.7-7.85Q42.5-6.15 41.3-4.8ZM42.4-21.15L42.4-21.15Q40.75-19.2 40.75-16.55L40.75-16.55Q40.75-13.75 42.3-12 43.85-10.25 46.55-10.25L46.55-10.25Q48.1-10.25 49.9-10.9L49.9-10.9Q52.3-12.85 52.3-15.8L52.3-15.8Q52.3-18.4 50.5-20.25 48.7-22.1 46.1-22.1L46.1-22.1Q44.3-22.1 42.4-21.15ZM45.1 7.5L45.1 7.5Q48.4 7.5 51.52 6.13 54.65 4.75 56 2.25L56 2.25Q52.8 0.35 44.45-0.75L44.45-0.75Q39.55 2.6 39.55 4.75L39.55 4.75Q39.55 6 41.1 6.75 42.65 7.5 45.1 7.5ZM68.65-28.65L68.65-28.65Q66.2-29.7 64.8-31.65L64.8-31.65Q66.1-34.35 67.85-35.45L67.85-35.45Q70.1-34.55 71.6-32.45L71.6-32.45Q70.8-30.15 68.65-28.65ZM70.65-22.45L70.65-3.2Q73.15-2.9 74.25-2.4L74.25-2.4 73.95 0 62.65 0 62.4-1.65Q63.6-2.25 66.2-3.05L66.2-3.05 66.2-20.6 62.45-20.3 61.85-22.65Q65.2-24.1 68.65-24.2L68.65-24.2 70.65-22.45ZM84.79-35L84.79-3.2Q87.29-2.9 88.39-2.4L88.39-2.4 88.09 0 76.79 0 76.54-1.65Q77.74-2.25 80.34-3.05L80.34-3.05 80.34-33.15 76.59-32.85 75.99-35.2Q79.34-36.65 82.79-36.75L82.79-36.75 84.79-35ZM107.94-12.85L95.09-13.1Q95.09-8.15 97.37-5.6 99.64-3.05 103.29-3.05L103.29-3.05Q105.99-3.05 109.69-4.7L109.69-4.7 110.44-2.55 102.64 0.75Q97.14 0.75 93.77-2.63 90.39-6 90.39-11.3L90.39-11.3Q90.39-16.7 93.72-20.55 97.04-24.4 101.84-24.4L101.84-24.4Q104.44-24.4 106.52-23.25 108.59-22.1 109.72-20.1 110.84-18.1 110.79-15.65L110.79-15.65 107.94-12.85ZM99.34-21.35L99.34-21.35Q96.49-19.85 95.49-15.75L95.49-15.75 106.44-16.25Q105.94-18.65 103.97-20.1 101.99-21.55 99.34-21.35ZM141.14-2.9L145.99-2.35 145.94 0 132.54 0 132.24-1.6 136.49-3.15 136.49-14.35 120.34-14.35 120.34-2.9 125.19-2.35 125.14 0 111.74 0 111.44-1.6 115.69-3.15 115.69-29.7 111.84-30.15 111.89-32.5 124.29-32.5 124.59-30.9 120.34-29.35 120.34-17.85 136.49-17.85 136.49-29.7 132.64-30.15 132.69-32.5 145.09-32.5 145.39-30.9 141.14-29.35 141.14-2.9ZM172.89-3.75L173.64-1.55 168.59 0.75Q167.79 0.65 166.61-0.5 165.44-1.65 164.99-2.95L164.99-2.95Q162.49-1.35 159.69-0.3 156.89 0.75 155.34 0.75L155.34 0.75Q152.59 0.15 150.94-2.5L150.94-2.5Q150.14-3.65 150.09-7.05L150.09-7.05 150.09-20.6 146.34-20.3 145.74-22.65Q149.09-24.1 152.54-24.2L152.54-24.2 154.54-22.45 154.54-7.4Q154.69-3.1 157.84-3.1L157.84-3.1Q160.59-3.1 164.84-5.7L164.84-5.7 164.84-20.6 161.09-20.3 160.49-22.65Q163.84-24.1 167.29-24.2L167.29-24.2 169.29-22.45 169.29-4.3Q169.29-3.3 170.59-3.3L170.59-3.3Q171.34-3.3 172.89-3.75L172.89-3.75ZM181.88-20.3L187.78-24.05 189.68-24.25Q193.63-24.25 196.26-20.88 198.88-17.5 198.88-12.5L198.88-12.5Q198.88-6.7 195.23-2.88 191.58 0.95 185.98 0.95L185.98 0.95Q182.13 0.95 177.43-1.2L177.43-1.2 177.43-33.15 173.73-32.85 173.13-35.2Q176.48-36.65 179.93-36.75L179.93-36.75 181.88-34.95 181.88-20.3ZM187.98-2.35L189.93-2.5Q191.88-3.7 193.03-6.2 194.18-8.7 194.18-11.5L194.18-11.5Q194.18-15.05 192.43-17.6 190.68-20.15 188.03-20.15L188.03-20.15Q185.63-20.15 181.88-17.65L181.88-17.65 181.88-4.2Q184.43-2.35 187.98-2.35L187.98-2.35Z" opacity="1" transform="matrix(1,0,0,1,0,0)" fill="#0080ff" class="wordmark-text-0" data-fill-palette-color="primary" id="text-0"></path></svg></g></svg></g></svg></g></svg></g></svg></g><defs></defs></svg><rect width="395.52" height="95.56586293146573" fill="none" stroke="none" visibility="hidden"></rect></g></svg></g></svg>